<mxfile host="app.diagrams.net" modified="2023-01-20T12:05:00.576Z" agent="5.0 (Windows NT 10.0; Win64; x64) AppleWebKit/537.36 (KHTML, like Gecko) Chrome/108.0.0.0 Safari/537.36" etag="oDXnUgEqH3MiI0uCfpj-" version="20.8.4" type="github">
  <diagram name="Page-1" id="197159a0-c6a4-9194-75a8-e4174976684c">
    <mxGraphModel dx="1990" dy="1277" grid="1" gridSize="10" guides="1" tooltips="1" connect="1" arrows="1" fold="1" page="1" pageScale="1.5" pageWidth="1169" pageHeight="826" background="none" math="0" shadow="0">
      <root>
        <mxCell id="0" style=";html=1;" />
        <mxCell id="1" style=";html=1;" parent="0" />
        <mxCell id="axhsJD7pFFd4vljBVRfP-1" value="&lt;div style=&quot;&quot;&gt;&lt;br&gt;&lt;/div&gt;&lt;div style=&quot;&quot;&gt;&lt;br&gt;&lt;/div&gt;" style="whiteSpace=wrap;html=1;aspect=fixed;align=left;" vertex="1" parent="1">
          <mxGeometry x="310" y="90" width="1090" height="1090" as="geometry" />
        </mxCell>
        <mxCell id="axhsJD7pFFd4vljBVRfP-9" value="KDM&lt;br&gt;" style="swimlane;whiteSpace=wrap;html=1;fontSize=20;" vertex="1" parent="1">
          <mxGeometry x="450" y="160" width="910" height="470" as="geometry" />
        </mxCell>
        <mxCell id="axhsJD7pFFd4vljBVRfP-19" value="InstanceSerice (ProjectActivationService)" style="swimlane;whiteSpace=wrap;html=1;fontSize=20;" vertex="1" parent="axhsJD7pFFd4vljBVRfP-9">
          <mxGeometry x="402" y="310.5" width="488" height="90.5" as="geometry" />
        </mxCell>
        <mxCell id="axhsJD7pFFd4vljBVRfP-11" value="Machineauthentication &amp;amp; Authorization" style="swimlane;whiteSpace=wrap;html=1;fontSize=20;" vertex="1" parent="1">
          <mxGeometry x="850" y="210" width="490" height="180" as="geometry" />
        </mxCell>
        <mxCell id="axhsJD7pFFd4vljBVRfP-16" value="1.Wer ist der user" style="text;html=1;strokeColor=none;fillColor=none;align=center;verticalAlign=middle;whiteSpace=wrap;rounded=0;fontSize=20;" vertex="1" parent="axhsJD7pFFd4vljBVRfP-11">
          <mxGeometry x="30" y="40" width="280" height="30" as="geometry" />
        </mxCell>
        <mxCell id="axhsJD7pFFd4vljBVRfP-12" value="Instance 1" style="swimlane;whiteSpace=wrap;html=1;fontSize=20;" vertex="1" parent="1">
          <mxGeometry x="720" y="720" width="200" height="90" as="geometry" />
        </mxCell>
        <mxCell id="axhsJD7pFFd4vljBVRfP-13" value="Instance 1" style="swimlane;whiteSpace=wrap;html=1;fontSize=20;" vertex="1" parent="1">
          <mxGeometry x="720" y="860" width="200" height="90" as="geometry" />
        </mxCell>
        <mxCell id="axhsJD7pFFd4vljBVRfP-14" value="" style="endArrow=classic;html=1;rounded=0;fontSize=20;shape=flexArrow;" edge="1" parent="1">
          <mxGeometry width="50" height="50" relative="1" as="geometry">
            <mxPoint x="80" y="350" as="sourcePoint" />
            <mxPoint x="310" y="350" as="targetPoint" />
          </mxGeometry>
        </mxCell>
        <mxCell id="axhsJD7pFFd4vljBVRfP-17" value="2.Darf er was er mÃ¶chte" style="text;html=1;strokeColor=none;fillColor=none;align=center;verticalAlign=middle;whiteSpace=wrap;rounded=0;fontSize=20;" vertex="1" parent="1">
          <mxGeometry x="880" y="288" width="280" height="30" as="geometry" />
        </mxCell>
        <mxCell id="axhsJD7pFFd4vljBVRfP-18" value="" style="edgeStyle=elbowEdgeStyle;elbow=horizontal;endArrow=classic;html=1;curved=0;rounded=0;endSize=8;startSize=8;fontSize=20;shape=flexArrow;entryX=0;entryY=0.5;entryDx=0;entryDy=0;" edge="1" parent="1" target="axhsJD7pFFd4vljBVRfP-11">
          <mxGeometry width="50" height="50" relative="1" as="geometry">
            <mxPoint x="450" y="300" as="sourcePoint" />
            <mxPoint x="890" y="560" as="targetPoint" />
          </mxGeometry>
        </mxCell>
        <mxCell id="axhsJD7pFFd4vljBVRfP-20" value="" style="edgeStyle=elbowEdgeStyle;elbow=horizontal;endArrow=classic;html=1;curved=0;rounded=0;endSize=8;startSize=8;fontSize=20;shape=flexArrow;entryX=0;entryY=0.5;entryDx=0;entryDy=0;" edge="1" parent="1" target="axhsJD7pFFd4vljBVRfP-19">
          <mxGeometry width="50" height="50" relative="1" as="geometry">
            <mxPoint x="852" y="360" as="sourcePoint" />
            <mxPoint x="890" y="560" as="targetPoint" />
            <Array as="points">
              <mxPoint x="730" y="440" />
            </Array>
          </mxGeometry>
        </mxCell>
        <mxCell id="axhsJD7pFFd4vljBVRfP-21" value="" style="edgeStyle=elbowEdgeStyle;elbow=horizontal;endArrow=classic;html=1;curved=0;rounded=0;endSize=8;startSize=8;fontSize=20;shape=flexArrow;entryX=0;entryY=0.5;entryDx=0;entryDy=0;" edge="1" parent="1" target="axhsJD7pFFd4vljBVRfP-12">
          <mxGeometry width="50" height="50" relative="1" as="geometry">
            <mxPoint x="850" y="550" as="sourcePoint" />
            <mxPoint x="862" y="525.7500000000002" as="targetPoint" />
            <Array as="points">
              <mxPoint x="560" y="660" />
            </Array>
          </mxGeometry>
        </mxCell>
        <mxCell id="axhsJD7pFFd4vljBVRfP-22" value="SmartHMI" style="swimlane;whiteSpace=wrap;html=1;fontSize=20;" vertex="1" parent="1">
          <mxGeometry x="1020" y="680" width="200" height="200" as="geometry" />
        </mxCell>
        <mxCell id="axhsJD7pFFd4vljBVRfP-23" value="" style="edgeStyle=elbowEdgeStyle;elbow=horizontal;endArrow=classic;html=1;curved=0;rounded=0;endSize=8;startSize=8;fontSize=20;shape=flexArrow;" edge="1" parent="1">
          <mxGeometry width="50" height="50" relative="1" as="geometry">
            <mxPoint x="920" y="770" as="sourcePoint" />
            <mxPoint x="1020" y="760" as="targetPoint" />
          </mxGeometry>
        </mxCell>
        <mxCell id="axhsJD7pFFd4vljBVRfP-25" value="" style="edgeStyle=elbowEdgeStyle;elbow=horizontal;endArrow=classic;html=1;curved=0;rounded=0;endSize=8;startSize=8;fontSize=20;shape=flexArrow;exitX=-0.005;exitY=0.24;exitDx=0;exitDy=0;exitPerimeter=0;" edge="1" parent="1" source="axhsJD7pFFd4vljBVRfP-1">
          <mxGeometry width="50" height="50" relative="1" as="geometry">
            <mxPoint x="930" y="780.0000000000002" as="sourcePoint" />
            <mxPoint x="450" y="300" as="targetPoint" />
          </mxGeometry>
        </mxCell>
      </root>
    </mxGraphModel>
  </diagram>
</mxfile>
